# xmcd CD database file
#
# Track frame offsets:
#	150
#	24688
#	43615
#	65593
#	84015
#	103703
#	122508
#	148160
#	170455
#	181825
#
# Disc length: 2691 seconds
#
# Revision: 3
# Processed by: cddbd v1.5.2PL0 Copyright (c) Steve Scherf et al.
# Submitted via: CDex 1.70beta2
#
DISCID=7f0a810a
DTITLE=憂歌団 - Big Town, Small Hands
DYEAR=1994
DGENRE=Blues
TTITLE0=胸が痛い
TTITLE1=あの子は珍しかったのさ
TTITLE2=三年待てへんか
TTITLE3=泣くな、恋人
TTITLE4=大きな街、ちいさな手
TTITLE5=キスに願いを
TTITLE6=素敵な声のキャロル
TTITLE7=俺はお前の言いなりなんかになりゃしねェぞ
TTITLE8=Happy Man in Blue (instrumental)
TTITLE9=家に帰ろう
EXTD=YEAR: 1994
EXTT0=
EXTT1=
EXTT2=
EXTT3=
EXTT4=
EXTT5=
EXTT6=
EXTT7=
EXTT8=
EXTT9=
PLAYORDER=
